<svg xmlns="http://www.w3.org/2000/svg" viewBox="0 0 128 128" role="img" aria-labelledby="title"><title id="title">말차 아이스 블렌디드</title><ellipse cx="65" cy="111" rx="39" ry="6" fill="#55432b" opacity=".1"/><g stroke="#6e5946" stroke-width="2.5" stroke-linecap="round" stroke-linejoin="round"><path d="M35 30h56l-7 71q-19 7-42 0z" fill="#e7efea"/><path d="M40 42h46l-6 56q-15 5-34 0z" fill="#9bae79" stroke="none"/><ellipse cx="63" cy="30" rx="28" ry="6" fill="#e4eaca"/><path d="M43 43 47 91" stroke="#fff" stroke-opacity=".6" stroke-width="4"/><path d="m76 49 8-35" stroke="#e4eaca" stroke-width="7"/><path d="M35 41q-1-11 11-13-1-10 13-11 8-14 13 0 16 0 15 12 11 3 6 12z" fill="#fff2d8"/><path d="M45 34q21 6 39-3M52 25h21" fill="none" stroke="#e4eaca" stroke-width="3"/><path d="M33 44h61" stroke="#d9d8bb" stroke-width="4"/><path d="M79 95q-4-25 26-32 3 26-26 32" fill="#7c9955"/><path d="m80 94 20-24m-11 15-1-10m6 6 8 1" stroke="#c4d29d" stroke-width="2"/></g></svg>
