<svg xmlns="http://www.w3.org/2000/svg" viewBox="0 0 128 128" role="img" aria-labelledby="title"><title id="title">오트밀크</title><ellipse cx="65" cy="111" rx="39" ry="6" fill="#55432b" opacity=".1"/><g stroke="#6e5946" stroke-width="2.5" stroke-linecap="round" stroke-linejoin="round"><path d="m41 43 10-19h25l12 19v57H41z" fill="#eeddbc"/><path d="m51 24 12 19v57H41V43z" fill="#bba06a"/><path d="M41 43h47M63 43l13-19" fill="none"/><path d="M53 21h23" stroke-width="5"/><rect x="68" y="54" width="13" height="23" rx="6" fill="#bba06a" stroke="none"/><path d="M46 88h11" stroke="#fff5db" stroke-width="3"/><path d="m85 99 14-40" fill="none" stroke="#b29455" stroke-width="2"/><g fill="#dcc185" stroke-width="1.5"><ellipse cx="92" cy="69" rx="4" ry="8" transform="rotate(-30 92 69)"/><ellipse cx="101" cy="75" rx="4" ry="8" transform="rotate(35 101 75)"/><ellipse cx="87" cy="82" rx="4" ry="8" transform="rotate(-30 87 82)"/><ellipse cx="96" cy="88" rx="4" ry="8" transform="rotate(35 96 88)"/></g></g></svg>
